<?xml version="1.0" encoding="UTF-8"?>
<svg id="Layer_1" xmlns="http://www.w3.org/2000/svg" version="1.1" viewBox="0 0 167.24 74.97">
  <!-- Generator: Adobe Illustrator 29.5.1, SVG Export Plug-In . SVG Version: 2.1.0 Build 141)  -->
  <defs>
    <style>
      .st0 {
        fill: #333;
        fill-rule: evenodd;
      }
    </style>
  </defs>
  <path class="st0" d="M45.96,71.23v-6.13c0-.47-.55-.86-1.23-.86h-4.25c-.68,0-1.23-.38-1.23-.86v-13.87c0-.47.55-.86,1.23-.86h4.25c.68,0,1.23-.38,1.23-.86v-4.91h50.23v3.37c0,1.06.86,1.93,1.93,1.93h1.66c1.06,0,1.93-.86,1.93-1.93v-1.66c.36.56.99.93,1.71.93h1.43c1.13,0,2.04-.91,2.04-2.04v-.6h12.29c1.72,16.55,11.07,29.21,22.34,29.21,12.5,0,22.63-15.54,22.63-34.7S154.01,2.69,141.51,2.69c-11.3,0-20.66,12.7-22.35,29.3h-12.28v-.6c0-1.13-.91-2.04-2.04-2.04h-1.43c-.72,0-1.34.37-1.71.93v-1.66c0-1.06-.86-1.93-1.93-1.93h-1.66c-1.06,0-1.93.86-1.93,1.93v3.37H7.43c-1.96,0-3.54,1.59-3.54,3.54v3.82c0,1.96,1.59,3.54,3.54,3.54h9.54v4.91c0,.47.55.86,1.23.86h4.17c.68,0,1.23.38,1.23.86v13.87c0,.47-.55.86-1.23.86h-4.17c-.68,0-1.23.38-1.23.86v6.13c0,.47.55.86,1.23.86h26.53c.68,0,1.23-.38,1.23-.86ZM141.51,15.22c6.24,0,11.58,5.13,11.29,12.28-.27,6.68-2.4,5.9-2.43,9.9.03,4,2.16,3.22,2.43,9.9.29,7.15-5.05,12.28-11.29,12.28s-11.58-5.13-11.29-12.28c.27-6.68,2.4-5.9,2.43-9.9-.03-4-2.16-3.22-2.43-9.9-.29-7.15,5.05-12.28,11.29-12.28Z"/>
</svg>