<svg xmlns="http://www.w3.org/2000/svg" id="Layer_1" version="1.1" viewBox="0 0 726.9 132.3"><defs><style>.st0{fill:#ff7bac}</style></defs><path d="M79.44 120.17c-8.37 0-16.21-1.26-23.51-3.78-7.3-2.52-13.74-6.12-19.32-10.79-5.58-4.67-9.93-10.28-13.04-16.83-3.12-6.55-4.67-13.79-4.67-21.74 0-7.41 1.48-14.46 4.43-21.17 2.95-6.71 7.27-12.67 12.96-17.87 5.69-5.21 12.53-9.34 20.53-12.4C64.81 12.53 73.86 11 83.95 11c3.43 0 6.9.24 10.39.73 3.49.48 6.87 1.15 10.14 2.01 3.27.86 6.25 1.77 8.94 2.74.97.43 1.8.99 2.5 1.69s1.1 1.69 1.21 2.98c.43 3.54.75 6.98.97 10.31.21 3.33.32 6.33.32 9.02 0 1.18-.43 1.99-1.29 2.42-.86.43-1.8.46-2.82.08-1.02-.37-1.75-1.21-2.17-2.5-.75-2.47-1.64-4.94-2.66-7.41-1.02-2.47-2.55-4.61-4.59-6.44-2.15-2.14-5.13-3.92-8.94-5.31-3.81-1.39-8.4-2.09-13.77-2.09s-10.44 1.18-14.89 3.54c-4.45 2.36-8.27 5.58-11.43 9.66-3.17 4.08-5.61 8.7-7.33 13.85-1.72 5.15-2.58 10.52-2.58 16.1 0 7.08.75 13.66 2.25 19.72 1.5 6.07 3.81 11.3 6.92 15.7 3.11 4.4 6.92 7.84 11.43 10.31 4.51 2.47 9.82 3.7 15.94 3.7 7.94 0 14.38-1.69 19.32-5.07 4.94-3.38 9.07-8.56 12.4-15.54.86-1.93 2.07-2.84 3.62-2.74 1.55.11 2.34 1.02 2.34 2.74 0 1.4-.14 3.09-.4 5.07-.27 1.99-.67 4.11-1.21 6.36-.54 2.25-1.18 4.56-1.93 6.92-.43 1.29-.99 2.28-1.69 2.98-.7.7-1.59 1.31-2.66 1.85-4.08 1.72-8.91 3.11-14.49 4.19-5.58 1.07-11.7 1.61-18.36 1.61ZM177.2 121.3c-.86 0-1.29-.54-1.29-1.61 0-1.29.13-3 .4-5.15.27-2.15.4-3.81.4-4.99 0-.43-.03-.8-.08-1.13-.06-.32-.14-.54-.24-.64-2.9 3.54-6.6 6.52-11.11 8.94-4.51 2.41-9.29 3.62-14.33 3.62-3.33 0-6.33-.99-9.02-2.98-2.68-1.99-4.81-4.69-6.36-8.13-1.56-3.43-2.34-7.3-2.34-11.59V67.53c0-2.47-.46-4.45-1.37-5.96-.91-1.5-2.6-2.52-5.07-3.06-.64-.11-1.21-.4-1.69-.89s-.73-1.21-.73-2.17c0-.75.21-1.37.64-1.85.43-.48 1.02-.78 1.77-.89 4.51-.21 8.59-.67 12.24-1.37 3.65-.7 7.35-1.53 11.11-2.5.53-.1 1.1-.24 1.69-.4.59-.16 1.15-.24 1.69-.24 1.5 0 2.2.75 2.09 2.25-.43 2.47-.75 4.53-.97 6.2-.22 1.67-.32 3.73-.32 6.2v30.92c0 2.58.43 4.83 1.29 6.76.86 1.93 2.04 3.44 3.54 4.51a9.231 9.231 0 0 0 4.99 1.77c1.72 0 3.41-.21 5.07-.64 1.66-.43 3.25-1.39 4.75-2.9.64-.53 1.34-1.64 2.09-3.3.75-1.66 1.13-3.89 1.13-6.68V67.37c0-1.93-.38-3.51-1.13-4.75a8.573 8.573 0 0 0-3.06-2.98c-1.29-.75-2.79-1.18-4.51-1.29-1.18-.11-2.12-.4-2.82-.89-.7-.48-1.05-1.37-1.05-2.66 0-1.07.38-1.88 1.13-2.41.75-.54 1.66-.81 2.74-.81 5.48-.32 9.82-.62 13.04-.89 3.22-.27 5.85-.56 7.89-.88 2.04-.32 4.08-.7 6.12-1.13.32-.1.7-.21 1.13-.32.43-.11.75-.16.97-.16 1.61 0 2.42.64 2.42 1.93 0 .32-.06.7-.16 1.13-.11.43-.27.86-.48 1.29-.11.43-.24 1.37-.4 2.82s-.32 2.98-.48 4.59c-.16 1.61-.24 2.9-.24 3.86v37.36c0 2.47.29 4.11.88 4.91.59.8 1.26 1.21 2.01 1.21.54 0 1.34.03 2.42.08 1.07.06 1.77.08 2.09.08.97 0 1.72.27 2.25.81s.8 1.23.8 2.09c0 .97-.19 1.75-.56 2.34-.38.59-1.1.94-2.17 1.05-5.15.43-9.8 1.32-13.93 2.66-4.13 1.34-7.7 2.6-10.71 3.78-.64.21-1.34.46-2.09.73-.75.27-1.45.4-2.09.4ZM239.41 120.17c-7.09 0-12.4-1.8-15.94-5.39-3.54-3.6-5.31-8.67-5.31-15.22V62.53c0-.97-.35-1.66-1.05-2.09-.7-.43-2.01-.7-3.94-.81h-2.09c-.75 0-1.37-.62-1.85-1.85s-.73-2.34-.73-3.3c0-.21.08-.51.24-.89.16-.38.4-.62.73-.73 2.57-.97 5.34-2.44 8.29-4.43 2.95-1.99 5.8-4.11 8.53-6.36 2.74-2.25 4.96-4.13 6.68-5.64.75-.53 1.39-1.02 1.93-1.45.54-.43 1.23-.64 2.09-.64.97 0 1.66.19 2.09.56.43.38.54 1.26.32 2.66l-.97 9.5c-.11 1.29.19 2.17.89 2.66.7.48 1.69.73 2.98.73h19.16c.32 0 .64.38.97 1.13.32.75.48 1.45.48 2.09 0 1.5-.22 2.95-.64 4.35-.43 1.4-.91 2.09-1.45 2.09h-14.97c-2.47 0-4.16.3-5.07.88-.91.59-1.37 1.64-1.37 3.14v30.43c0 4.94.94 8.61 2.82 11.03s4.37 3.62 7.49 3.62 5.39-.32 6.84-.97c1.45-.64 2.76-1.18 3.94-1.61.43-.21.75-.32.97-.32.53 0 .97.32 1.29.97.32.64.48 1.4.48 2.25 0 .64-1.13 1.83-3.38 3.54-2.25 1.72-5.18 3.33-8.78 4.83-3.6 1.5-7.49 2.25-11.67 2.25ZM294.93 120.17c-5.8 0-10.98-1.53-15.54-4.59-4.56-3.06-8.16-7.25-10.79-12.56-2.63-5.31-3.94-11.35-3.94-18.11s1.55-12.91 4.67-18.43c3.11-5.53 7.35-9.93 12.72-13.2 5.37-3.27 11.27-4.91 17.71-4.91 4.62 0 8.75.99 12.4 2.98 3.65 1.99 6.57 4.64 8.78 7.97 2.2 3.33 3.3 7.09 3.3 11.27s-1.66 6.12-4.99 6.12h-32.2c-1.51 0-2.6.43-3.3 1.29-.7.86-1.05 2.31-1.05 4.35 0 4.08.91 7.81 2.74 11.19 1.82 3.38 4.29 6.04 7.41 7.97 3.11 1.93 6.71 2.9 10.79 2.9 3.11 0 5.98-.59 8.61-1.77 2.63-1.18 5.23-2.79 7.81-4.83.43-.32.83-.62 1.21-.89s.72-.4 1.05-.4c1.07 0 1.61.7 1.61 2.09 0 1.18-.43 2.79-1.29 4.83-1.07 2.68-2.87 5.34-5.39 7.97-2.52 2.63-5.66 4.75-9.42 6.36s-8.05 2.42-12.88 2.42Zm-7.89-50.24h9.66c3 0 5.1-.05 6.28-.16 1.18-.11 2.25-.32 3.22-.64.54-.21.97-.75 1.29-1.61.32-.86.48-1.82.48-2.9 0-2.9-.99-5.26-2.98-7.08-1.99-1.82-4.43-2.74-7.33-2.74-2.25 0-4.38.62-6.36 1.85-1.99 1.24-3.6 2.85-4.83 4.83-1.23 1.99-1.8 4.05-1.69 6.2 0 1.5.75 2.25 2.25 2.25ZM427.77 119.04c-3.65 0-7.65-.11-12-.32-4.35-.22-8.4-.4-12.16-.56-3.76-.16-6.6-.24-8.53-.24-2.15 0-4.51.03-7.08.08-2.58.05-5.23.13-7.97.24-2.74.11-5.34.16-7.81.16-.75 0-1.45-.19-2.09-.56s-.97-.94-.97-1.69c0-.97.29-1.72.89-2.25.59-.54 1.42-.91 2.5-1.13 4.08-.86 6.87-1.96 8.37-3.3 1.5-1.34 2.25-3.73 2.25-7.16V29.2c0-3.43-.7-5.88-2.09-7.33-1.4-1.45-4.24-2.66-8.53-3.62-1.08-.21-1.91-.59-2.5-1.13-.59-.54-.89-1.29-.89-2.25 0-.75.32-1.34.97-1.77.64-.43 1.34-.64 2.09-.64 2.47 0 5.07.06 7.81.16 2.74.11 5.42.24 8.05.4 2.63.16 5.02.24 7.16.24 1.72 0 3.97-.08 6.76-.24 2.79-.16 5.82-.32 9.1-.48s6.44-.32 9.5-.48c3.06-.16 5.55-.24 7.49-.24 8.16 0 15.7 1.26 22.62 3.78 6.92 2.52 12.99 6.12 18.2 10.79 5.2 4.67 9.26 10.17 12.16 16.5 2.9 6.33 4.35 13.31 4.35 20.93 0 7.19-1.29 14.09-3.87 20.69-2.57 6.6-6.33 12.5-11.27 17.71-4.94 5.21-10.95 9.31-18.03 12.32-7.08 3.01-15.24 4.51-24.48 4.51Zm-2.42-8.21c7.3 0 13.42-1.8 18.36-5.4 4.94-3.59 8.62-8.59 11.03-14.97 2.42-6.39 3.62-13.82 3.62-22.3 0-7.19-.78-13.71-2.34-19.57-1.56-5.85-3.81-10.87-6.76-15.05-2.95-4.19-6.6-7.43-10.95-9.74-4.35-2.31-9.26-3.46-14.73-3.46-3.44 0-6.31.11-8.61.32-2.31.22-4.05.75-5.23 1.61-1.18.86-1.77 2.25-1.77 4.18v70.21c0 3.54.67 6.33 2.01 8.37 1.34 2.04 3.33 3.52 5.96 4.43 2.63.91 5.77 1.37 9.42 1.37ZM524.97 120.17c-6.44 0-12.24-1.45-17.39-4.35-5.15-2.9-9.26-6.9-12.32-12-3.06-5.1-4.59-10.87-4.59-17.31 0-5.15.97-10.04 2.9-14.65 1.93-4.62 4.61-8.7 8.05-12.24 3.43-3.54 7.46-6.33 12.08-8.37 4.61-2.04 9.55-3.06 14.81-3.06 6.65 0 12.66 1.56 18.03 4.67 5.37 3.12 9.63 7.22 12.8 12.32 3.16 5.1 4.75 10.66 4.75 16.67 0 6.87-1.48 13.23-4.43 19.08-2.95 5.85-7.3 10.52-13.04 14.01-5.75 3.49-12.96 5.23-21.66 5.23Zm3.23-7.08c2.25 0 4.21-.45 5.88-1.37 1.66-.91 3.03-2.28 4.11-4.11 1.29-2.15 2.17-5.07 2.66-8.78.48-3.7.73-8.07.73-13.12 0-5.8-.64-10.97-1.93-15.54-1.29-4.56-3.09-8.18-5.39-10.87-2.31-2.68-5.02-4.03-8.13-4.03-1.72 0-3.28.3-4.67.89-1.4.59-2.63 1.42-3.7 2.49-1.83 2.15-3.09 5.21-3.78 9.18-.7 3.97-1.05 8.85-1.05 14.65 0 5.15.67 10.06 2.01 14.73 1.34 4.67 3.17 8.48 5.48 11.43 2.31 2.95 4.91 4.43 7.81 4.43ZM603.73 120.17c-6.44 0-12.24-1.45-17.39-4.35-5.15-2.9-9.26-6.9-12.32-12-3.06-5.1-4.59-10.87-4.59-17.31 0-5.15.97-10.04 2.9-14.65 1.93-4.62 4.62-8.7 8.05-12.24s7.46-6.33 12.08-8.37c4.62-2.04 9.55-3.06 14.81-3.06 6.66 0 12.67 1.56 18.03 4.67 5.37 3.12 9.63 7.22 12.8 12.32 3.16 5.1 4.75 10.66 4.75 16.67 0 6.87-1.48 13.23-4.43 19.08-2.95 5.85-7.3 10.52-13.04 14.01-5.74 3.49-12.96 5.23-21.66 5.23Zm3.22-7.08c2.25 0 4.21-.45 5.88-1.37 1.66-.91 3.03-2.28 4.11-4.11 1.29-2.15 2.17-5.07 2.66-8.78.48-3.7.73-8.07.73-13.12 0-5.8-.64-10.97-1.93-15.54-1.29-4.56-3.09-8.18-5.4-10.87-2.31-2.68-5.02-4.03-8.13-4.03-1.72 0-3.27.3-4.67.89-1.4.59-2.63 1.42-3.71 2.49-1.83 2.15-3.09 5.21-3.78 9.18-.7 3.97-1.05 8.85-1.05 14.65 0 5.15.67 10.06 2.01 14.73 1.34 4.67 3.16 8.48 5.47 11.43 2.31 2.95 4.91 4.43 7.81 4.43ZM648.59 118.4c-.86 0-1.61-.19-2.25-.56s-.97-.94-.97-1.69c0-.86.32-1.53.97-2.01s1.55-.89 2.74-1.21c2.36-.75 3.94-1.55 4.75-2.41.81-.86 1.21-2.09 1.21-3.7V69.79c0-2.25-.3-4.11-.89-5.55-.59-1.45-1.91-2.44-3.94-2.98-.54-.21-1.02-.51-1.45-.88-.43-.38-.64-1.05-.64-2.01 0-1.5.64-2.42 1.93-2.74 3.43-.86 7.22-1.99 11.35-3.38s7.65-2.79 10.55-4.19c.54-.43 1.21-.83 2.01-1.21.81-.37 1.37-.56 1.69-.56.97 0 1.45.59 1.45 1.77 0 .54-.03 1.64-.08 3.3-.06 1.66-.11 3.36-.16 5.07-.06 1.72-.14 3.17-.24 4.35 0 .97.21 1.45.64 1.45 1.61-2.25 3.51-4.45 5.72-6.6 2.2-2.15 4.59-3.92 7.16-5.31 2.58-1.4 5.1-2.09 7.57-2.09 3.76 0 6.41.7 7.97 2.09 1.55 1.4 2.33 3.22 2.33 5.47 0 1.61-.46 3.38-1.37 5.31-.91 1.93-2.07 3.6-3.46 4.99-1.4 1.4-2.9 2.09-4.51 2.09-.97 0-1.99-.24-3.06-.73-1.08-.48-2.15-.99-3.22-1.53-1.07-.43-2.12-.89-3.14-1.37-1.02-.48-1.96-.73-2.82-.73-2.79 0-5.21 1.02-7.25 3.06s-3.06 6.12-3.06 12.24v26.25c0 2.15.67 3.73 2.01 4.75 1.34 1.02 3.51 1.96 6.52 2.82 1.18.32 2.07.73 2.66 1.21.59.48.88 1.15.88 2.01 0 1.5-.91 2.25-2.74 2.25-3.22 0-6.55-.14-9.98-.4-3.44-.27-6.55-.4-9.34-.4-1.83 0-3.68.06-5.55.16-1.88.11-3.81.24-5.8.4-1.99.16-4.05.24-6.2.24Z" class="st0"/></svg>